<mxfile host="app.diagrams.net" modified="2023-08-12T05:50:58.114Z" agent="Mozilla/5.0 (Windows NT 10.0; Win64; x64) AppleWebKit/537.36 (KHTML, like Gecko) Chrome/115.0.0.0 Safari/537.36" etag="qXF9zHYe3juMjc4rIcIB" version="21.6.8" type="github">
  <diagram name="PÃ¡gina-1" id="JWLegUShalc6kZQy0lzp">
    <mxGraphModel dx="1702" dy="445" grid="1" gridSize="10" guides="1" tooltips="1" connect="1" arrows="1" fold="1" page="1" pageScale="1" pageWidth="827" pageHeight="1169" math="0" shadow="0">
      <root>
        <mxCell id="0" />
        <mxCell id="1" parent="0" />
        <mxCell id="gmeZCnRy89goh0qp2zQo-17" style="rounded=0;orthogonalLoop=1;jettySize=auto;html=1;endArrow=none;endFill=0;" edge="1" parent="1" source="gmeZCnRy89goh0qp2zQo-1" target="gmeZCnRy89goh0qp2zQo-12">
          <mxGeometry relative="1" as="geometry" />
        </mxCell>
        <mxCell id="gmeZCnRy89goh0qp2zQo-31" style="rounded=0;orthogonalLoop=1;jettySize=auto;html=1;startArrow=none;startFill=0;endArrow=none;endFill=0;" edge="1" parent="1" source="gmeZCnRy89goh0qp2zQo-30" target="gmeZCnRy89goh0qp2zQo-18">
          <mxGeometry relative="1" as="geometry" />
        </mxCell>
        <mxCell id="gmeZCnRy89goh0qp2zQo-2" value="user" style="rounded=0;whiteSpace=wrap;html=1;" vertex="1" parent="1">
          <mxGeometry x="80" y="480" width="80" height="40" as="geometry" />
        </mxCell>
        <mxCell id="gmeZCnRy89goh0qp2zQo-7" value="&lt;h1&gt;DB design&lt;/h1&gt;&lt;p&gt;61 complete flow&lt;/p&gt;&lt;p&gt;86 ER diagram&lt;/p&gt;" style="text;html=1;strokeColor=none;fillColor=none;spacing=5;spacingTop=-20;whiteSpace=wrap;overflow=hidden;rounded=0;" vertex="1" parent="1">
          <mxGeometry x="810" y="410" width="190" height="120" as="geometry" />
        </mxCell>
        <mxCell id="gmeZCnRy89goh0qp2zQo-8" value="&lt;h1&gt;conceptual schema&lt;/h1&gt;&lt;p&gt;Lorem ipsum dolor sit amet, consectetur adipisicing elit, sed do eiusmod tempor incididunt ut labore et dolore magna aliqua.&lt;/p&gt;" style="text;html=1;strokeColor=none;fillColor=none;spacing=5;spacingTop=-20;whiteSpace=wrap;overflow=hidden;rounded=0;" vertex="1" parent="1">
          <mxGeometry x="270" y="220" width="190" height="120" as="geometry" />
        </mxCell>
        <mxCell id="gmeZCnRy89goh0qp2zQo-9" value="&lt;h1&gt;data requirements&lt;/h1&gt;&lt;p&gt;Lorem ipsum dolor sit amet, consectetur adipisicing elit, sed do eiusmod tempor incididunt ut labore et dolore magna aliqua.&lt;/p&gt;" style="text;html=1;strokeColor=none;fillColor=none;spacing=5;spacingTop=-20;whiteSpace=wrap;overflow=hidden;rounded=0;" vertex="1" parent="1">
          <mxGeometry x="40" y="220" width="190" height="120" as="geometry" />
        </mxCell>
        <mxCell id="gmeZCnRy89goh0qp2zQo-11" value="&lt;h1&gt;logical (conceptual) schema&lt;/h1&gt;&lt;p&gt;Lorem ipsum dolor sit amet, consectetur adipisicing elit, sed do eiusmod tempor incididunt ut labore et dolore magna aliqua.&lt;/p&gt;" style="text;html=1;strokeColor=none;fillColor=none;spacing=5;spacingTop=-20;whiteSpace=wrap;overflow=hidden;rounded=0;" vertex="1" parent="1">
          <mxGeometry x="480" y="220" width="190" height="120" as="geometry" />
        </mxCell>
        <mxCell id="gmeZCnRy89goh0qp2zQo-12" value="address" style="rounded=0;whiteSpace=wrap;html=1;" vertex="1" parent="1">
          <mxGeometry x="320" y="480" width="80" height="40" as="geometry" />
        </mxCell>
        <mxCell id="gmeZCnRy89goh0qp2zQo-13" value="requirement collection&lt;span style=&quot;white-space: pre;&quot;&gt;&#x9;&lt;/span&gt;&lt;span style=&quot;white-space: pre;&quot;&gt;&#x9;&lt;/span&gt;&lt;span style=&quot;white-space: pre;&quot;&gt;&#x9;&lt;span style=&quot;white-space: pre;&quot;&gt;&#x9;&lt;/span&gt;&lt;/span&gt;&lt;span style=&quot;white-space: pre;&quot;&gt;&#x9;&lt;/span&gt;conceptual design&lt;span style=&quot;white-space: pre;&quot;&gt;&#x9;&lt;/span&gt;&lt;span style=&quot;white-space: pre;&quot;&gt;&#x9;&lt;span style=&quot;white-space: pre;&quot;&gt;&#x9;&lt;/span&gt;&lt;/span&gt;&lt;span style=&quot;white-space: pre;&quot;&gt;&#x9;&lt;/span&gt;&lt;span style=&quot;white-space: pre;&quot;&gt;&#x9;&lt;/span&gt;logical design&lt;span style=&quot;white-space: pre;&quot;&gt;&#x9;&lt;/span&gt;&lt;span style=&quot;white-space: pre;&quot;&gt;&#x9;&lt;span style=&quot;white-space: pre;&quot;&gt;&#x9;&lt;/span&gt;&lt;span style=&quot;white-space: pre;&quot;&gt;&#x9;&lt;/span&gt;&lt;span style=&quot;white-space: pre;&quot;&gt;&#x9;&lt;/span&gt;&lt;span style=&quot;white-space: pre;&quot;&gt;&#x9;&lt;/span&gt;&lt;span style=&quot;white-space: pre;&quot;&gt;&#x9;&lt;/span&gt;&lt;/span&gt;physical design" style="text;html=1;strokeColor=none;fillColor=none;align=center;verticalAlign=middle;whiteSpace=wrap;rounded=0;" vertex="1" parent="1">
          <mxGeometry x="-80" y="160" width="1040" height="30" as="geometry" />
        </mxCell>
        <mxCell id="gmeZCnRy89goh0qp2zQo-15" style="rounded=0;orthogonalLoop=1;jettySize=auto;html=1;endArrow=none;endFill=0;" edge="1" parent="1" source="gmeZCnRy89goh0qp2zQo-14" target="gmeZCnRy89goh0qp2zQo-2">
          <mxGeometry relative="1" as="geometry" />
        </mxCell>
        <mxCell id="gmeZCnRy89goh0qp2zQo-14" value="name" style="ellipse;whiteSpace=wrap;html=1;" vertex="1" parent="1">
          <mxGeometry x="-40" y="440" width="80" height="40" as="geometry" />
        </mxCell>
        <mxCell id="gmeZCnRy89goh0qp2zQo-24" style="rounded=0;orthogonalLoop=1;jettySize=auto;html=1;endArrow=none;endFill=0;" edge="1" parent="1" source="gmeZCnRy89goh0qp2zQo-16" target="gmeZCnRy89goh0qp2zQo-2">
          <mxGeometry relative="1" as="geometry" />
        </mxCell>
        <mxCell id="gmeZCnRy89goh0qp2zQo-16" value="email" style="ellipse;whiteSpace=wrap;html=1;" vertex="1" parent="1">
          <mxGeometry x="-40" y="520" width="80" height="40" as="geometry" />
        </mxCell>
        <mxCell id="gmeZCnRy89goh0qp2zQo-21" style="rounded=0;orthogonalLoop=1;jettySize=auto;html=1;endArrow=none;endFill=0;" edge="1" parent="1" source="gmeZCnRy89goh0qp2zQo-18" target="gmeZCnRy89goh0qp2zQo-19">
          <mxGeometry relative="1" as="geometry" />
        </mxCell>
        <mxCell id="gmeZCnRy89goh0qp2zQo-18" value="shop order" style="rounded=0;whiteSpace=wrap;html=1;" vertex="1" parent="1">
          <mxGeometry x="180" y="650" width="80" height="40" as="geometry" />
        </mxCell>
        <mxCell id="gmeZCnRy89goh0qp2zQo-22" style="rounded=0;orthogonalLoop=1;jettySize=auto;html=1;endArrow=none;endFill=0;" edge="1" parent="1" source="gmeZCnRy89goh0qp2zQo-19" target="gmeZCnRy89goh0qp2zQo-20">
          <mxGeometry relative="1" as="geometry" />
        </mxCell>
        <mxCell id="gmeZCnRy89goh0qp2zQo-19" value="has" style="rhombus;whiteSpace=wrap;html=1;" vertex="1" parent="1">
          <mxGeometry x="300" y="650" width="80" height="40" as="geometry" />
        </mxCell>
        <mxCell id="gmeZCnRy89goh0qp2zQo-20" value="items" style="rounded=0;whiteSpace=wrap;html=1;" vertex="1" parent="1">
          <mxGeometry x="420" y="650" width="80" height="40" as="geometry" />
        </mxCell>
        <mxCell id="gmeZCnRy89goh0qp2zQo-23" value="" style="rounded=0;orthogonalLoop=1;jettySize=auto;html=1;endArrow=none;endFill=0;" edge="1" parent="1" source="gmeZCnRy89goh0qp2zQo-2" target="gmeZCnRy89goh0qp2zQo-1">
          <mxGeometry relative="1" as="geometry">
            <mxPoint x="210" y="506" as="sourcePoint" />
            <mxPoint x="400" y="534" as="targetPoint" />
          </mxGeometry>
        </mxCell>
        <mxCell id="gmeZCnRy89goh0qp2zQo-1" value="has" style="rhombus;whiteSpace=wrap;html=1;" vertex="1" parent="1">
          <mxGeometry x="200" y="480" width="80" height="40" as="geometry" />
        </mxCell>
        <mxCell id="gmeZCnRy89goh0qp2zQo-25" style="rounded=0;orthogonalLoop=1;jettySize=auto;html=1;endArrow=none;endFill=0;" edge="1" parent="1" source="gmeZCnRy89goh0qp2zQo-26" target="gmeZCnRy89goh0qp2zQo-28">
          <mxGeometry relative="1" as="geometry" />
        </mxCell>
        <mxCell id="gmeZCnRy89goh0qp2zQo-26" value="product" style="rounded=0;whiteSpace=wrap;html=1;" vertex="1" parent="1">
          <mxGeometry x="180" y="730" width="80" height="40" as="geometry" />
        </mxCell>
        <mxCell id="gmeZCnRy89goh0qp2zQo-27" style="rounded=0;orthogonalLoop=1;jettySize=auto;html=1;endArrow=none;endFill=0;" edge="1" parent="1" source="gmeZCnRy89goh0qp2zQo-28" target="gmeZCnRy89goh0qp2zQo-29">
          <mxGeometry relative="1" as="geometry" />
        </mxCell>
        <mxCell id="gmeZCnRy89goh0qp2zQo-28" value="has a" style="rhombus;whiteSpace=wrap;html=1;" vertex="1" parent="1">
          <mxGeometry x="300" y="730" width="80" height="40" as="geometry" />
        </mxCell>
        <mxCell id="gmeZCnRy89goh0qp2zQo-29" value="category" style="rounded=0;whiteSpace=wrap;html=1;" vertex="1" parent="1">
          <mxGeometry x="420" y="730" width="80" height="40" as="geometry" />
        </mxCell>
        <mxCell id="gmeZCnRy89goh0qp2zQo-32" value="" style="rounded=0;orthogonalLoop=1;jettySize=auto;html=1;startArrow=none;startFill=0;endArrow=none;endFill=0;" edge="1" parent="1" source="gmeZCnRy89goh0qp2zQo-2" target="gmeZCnRy89goh0qp2zQo-30">
          <mxGeometry relative="1" as="geometry">
            <mxPoint x="132" y="520" as="sourcePoint" />
            <mxPoint x="208" y="650" as="targetPoint" />
          </mxGeometry>
        </mxCell>
        <mxCell id="gmeZCnRy89goh0qp2zQo-30" value="realize" style="rhombus;whiteSpace=wrap;html=1;" vertex="1" parent="1">
          <mxGeometry x="150" y="565" width="80" height="40" as="geometry" />
        </mxCell>
      </root>
    </mxGraphModel>
  </diagram>
</mxfile>
